<svg width="400" height="500" viewBox="0 0 400 500" fill="none" xmlns="http://www.w3.org/2000/svg">
<rect y="50" width="400" height="400" rx="200" fill="#0EA5E9"/>
<path opacity="0.4" d="M282.198 228.749C275.898 234.899 272.298 243.749 273.198 253.199C274.548 269.399 289.398 281.248 305.597 281.248H334.997V302.998C334.997 347.998 304.997 377.997 259.998 377.997H124.999C79.9997 377.997 50 347.998 50 302.998V197.999C50 157.2 74.5998 128.7 112.849 123.9C116.749 123.3 120.799 123 124.999 123H259.998C263.898 123 267.648 123.15 271.248 123.75C309.947 128.25 334.997 156.9 334.997 197.999V219.749H303.797C295.398 219.749 287.748 223.049 282.198 228.749Z" fill="white"/>
<path d="M350 235.052V265.951C350 274.201 343.4 280.951 335 281.251H305.601C289.401 281.251 274.551 269.401 273.201 253.201C272.301 243.751 275.901 234.902 282.201 228.752C287.751 223.052 295.401 219.752 303.801 219.752H335C343.4 220.052 350 226.802 350 235.052Z" fill="white"/>
<path d="M167.908 343.5C157.242 343.5 149.492 340.833 144.658 335.5C139.825 330.167 137.408 321.583 137.408 309.75C137.408 302.25 138.492 291.083 140.658 276.25C142.825 261.417 146.992 236.167 153.158 200.5L139.908 173.75C158.742 161.583 175.908 155.5 191.408 155.5C204.242 155.5 210.658 163.333 210.658 179C210.658 182.667 209.658 190.167 207.658 201.5C205.825 212.667 203.742 224.417 201.408 236.75C198.242 253.75 195.742 267.583 193.908 278.25C192.242 288.917 191.408 296.5 191.408 301C191.408 308.667 191.908 314.833 192.908 319.5C194.075 324.167 196.075 328.417 198.908 332.25C189.908 339.75 179.575 343.5 167.908 343.5ZM220.658 343.25C213.325 343.25 206.158 342.583 199.158 341.25C192.158 339.917 184.158 337.333 175.158 333.5L187.408 303H218.408C231.242 301.167 243.575 297.917 255.408 293.25C257.242 297.917 258.158 303.25 258.158 309.25C258.158 320.083 254.908 328.5 248.408 334.5C241.908 340.333 232.658 343.25 220.658 343.25Z" fill="white"/>
</svg>
